Coordinates
version=1
nRows=12
nColumns=24
inDegrees=yes

Units are S.I. units (second, meters, Newtons, ...)
If the header above contains a line with 'inDegrees', this indicates whether rotational values are in degrees (yes) or radians (no).

endheader
time	pelvis_tilt	pelvis_list	pelvis_rotation	pelvis_tx	pelvis_ty	pelvis_tz	lumbar_extension	lumbar_bending	lumbar_rotation	arm_flex_r	arm_add_r	arm_rot_r	elbow_flex_r	pro_sup_r	wrist_flex_r	wrist_dev_r	arm_flex_l	arm_add_l	arm_rot_l	elbow_flex_l	pro_sup_l	wrist_flex_l	wrist_dev_l
     21.61200000	     -6.87561604	      1.69340285	      3.10402064	      0.52296187	      0.86392534	      0.09605949	     -3.37108752	     -0.75618448	      5.72620927	      7.24508522	     -5.95100696	     -2.01213921	     39.10602224	     17.60386025	    -46.68636773	    -24.99999983	     -4.29340721	    -15.13659172	     12.98568554	     46.77953663	     90.00000018	     -0.51688523	    -24.99999983
     21.61600000	     -6.85403480	      1.68797965	      3.10540639	      0.52312928	      0.86385985	      0.09611098	     -3.34931365	     -0.76310131	      5.72654128	      7.23880587	     -5.93230733	     -2.01132138	     39.10169039	     17.60389389	    -46.68224832	    -24.99999983	     -4.25737109	    -15.12251581	     12.98258925	     46.79993346	     90.00000018	     -0.51789485	    -24.99999983
     21.62000000	     -6.85403547	      1.68689554	      3.10545931	      0.52327273	      0.86385300	      0.09615775	     -3.34865101	     -0.76441907	      5.72619548	      7.23943228	     -5.93213796	     -2.01155749	     39.10149708	     17.60393996	    -46.68193779	    -24.99999983	     -4.25412706	    -15.12053111	     12.98270720	     46.80207193	     90.00000018	     -0.51791100	    -24.99999983
     21.62400000	     -6.85206888	      1.67121826	      3.15301581	      0.52330472	      0.86387510	      0.09626374	     -3.34865869	     -0.78330017	      5.77211042	      7.20869455	     -5.92370695	     -2.02962546	     39.05996169	     17.60356993	    -46.66618113	    -24.99999983	     -4.19322481	    -15.09175842	     12.98040307	     46.88689786	     90.00000018	     -0.51987699	    -24.99999983
     21.62800000	     -6.85046745	      1.67126211	      3.15264827	      0.52342372	      0.86388609	      0.09630386	     -3.34635965	     -0.78352133	      5.77143364	      7.21073990	     -5.92443197	     -2.03023342	     39.06043640	     17.60369530	    -46.66582063	    -24.99999983	     -4.19027224	    -15.09073431	     12.98058112	     46.88924147	     90.00000018	     -0.51985249	    -24.99999983
     21.63200000	     -6.85037718	      1.66938491	      3.18120820	      0.52331962	      0.86387851	      0.09615327	     -3.34778530	     -0.78633301	      5.80079072	      7.22361303	     -5.95462472	     -2.07999989	     39.02622121	     17.60614592	    -46.63965111	    -24.99999983	     -4.15143577	    -15.05786835	     13.00827695	     47.02758927	     90.00000018	     -0.51672267	    -24.99999983
     21.63600000	     -6.84982182	      1.67091646	      3.18162102	      0.52339849	      0.86389918	      0.09623982	     -3.34663905	     -0.78524866	      5.80073341	      7.22532530	     -5.95415087	     -2.08030090	     39.02681727	     17.60623550	    -46.63930441	    -24.99999983	     -4.15012794	    -15.05601223	     13.00887893	     47.02948141	     90.00000018	     -0.51666461	    -24.99999983
     21.64000000	     -6.83957179	      1.67575319	      3.19016020	      0.52345483	      0.86394986	      0.09630918	     -3.33582526	     -0.78178440	      5.80893460	      7.23585526	     -5.93671952	     -2.08185199	     39.02946533	     17.60675083	    -46.63566970	    -24.99999983	     -4.14281068	    -15.02726801	     13.01743950	     47.05582022	     90.00000018	     -0.51603955	    -24.99999983
     21.64400000	     -6.86289042	      1.68453151	      3.21512449	      0.52317203	      0.86394196	      0.09597200	     -3.36087556	     -0.77162764	      5.83689642	      7.26262131	     -6.00172402	     -2.16285277	     39.00304113	     17.61372204	    -46.60249872	    -24.99999983	     -4.12541805	    -14.97644118	     13.03496553	     47.25401448	     90.00000018	     -0.51767163	    -24.99999983
     21.64800000	     -6.86267749	      1.68473219	      3.21488784	      0.52326177	      0.86395791	      0.09604031	     -3.36009114	     -0.77173854	      5.83622461	      7.26412043	     -6.00102858	     -2.16314706	     39.00379466	     17.61384181	    -46.60217339	    -24.99999983	     -4.12405339	    -14.97444319	     13.03545446	     47.25574458	     90.00000018	     -0.51764338	    -24.99999983
     21.65200000	     -6.85315049	      1.68229871	      3.21192829	      0.52337112	      0.86391169	      0.09607081	     -3.35028494	     -0.77469224	      5.83273616	      7.26949438	     -5.99113602	     -2.16512338	     39.00765760	     17.61463028	    -46.59938026	    -24.99999983	     -4.11294092	    -14.96140612	     13.03934009	     47.27398986	     90.00000018	     -0.51724321	    -24.99999983
     21.65600000	     -6.85301751	      1.68162157	      3.21078910	      0.52347669	      0.86388252	      0.09609785	     -3.34974868	     -0.77545491	      5.83134945	      7.27019768	     -5.99167241	     -2.16570352	     39.00794680	     17.61474326	    -46.59907210	    -24.99999983	     -4.11035790	    -14.96037812	     13.03972133	     47.27667660	     90.00000018	     -0.51716256	    -24.99999983
